<svg id="グループ_23989" data-name="グループ 23989" xmlns="http://www.w3.org/2000/svg" width="15.068" height="25.047" viewBox="0 0 15.068 25.047">
  <path id="パス_6116" data-name="パス 6116" d="M-3277.621,2774.315h-10.2a2.437,2.437,0,0,1-2.435-2.436V2751.7a2.437,2.437,0,0,1,2.435-2.435h10.2a2.438,2.438,0,0,1,2.435,2.435v20.177A2.438,2.438,0,0,1-3277.621,2774.315Zm-10.2-23.885a1.274,1.274,0,0,0-1.272,1.272v20.177a1.274,1.274,0,0,0,1.272,1.273h10.2a1.274,1.274,0,0,0,1.273-1.273V2751.7a1.274,1.274,0,0,0-1.273-1.272Z" transform="translate(3290.254 -2749.268)" fill="#fff"/>
  <path id="パス_6117" data-name="パス 6117" d="M-3180.264,2830.8h-4.113a.581.581,0,0,1-.582-.581.581.581,0,0,1,.582-.582h4.113a.581.581,0,0,1,.581.582A.581.581,0,0,1-3180.264,2830.8Z" transform="translate(3189.854 -2825.902)" fill="#fff"/>
  <circle id="楕円形_521" data-name="楕円形 521" cx="1.107" cy="1.107" r="1.107" transform="translate(6.428 19.22)" fill="#fff"/>
</svg>
