<svg xmlns="http://www.w3.org/2000/svg" xmlns:xlink="http://www.w3.org/1999/xlink" width="28" height="28" viewBox="0 0 28 28"><defs><style>.a,.c{fill:#fff;}.a{stroke:#707070;}.b{clip-path:url(#a);}</style><clipPath id="a"><rect class="a" width="28" height="28"/></clipPath></defs><g class="b"><g transform="translate(4.767 4.667)"><path class="c" d="M-1648.541,953.81a.408.408,0,0,1-.408-.408,3.959,3.959,0,0,0-3.954-3.954,3.959,3.959,0,0,0-3.954,3.954.408.408,0,0,1-.408.408.408.408,0,0,1-.408-.408,4.776,4.776,0,0,1,4.771-4.77,4.776,4.776,0,0,1,4.771,4.77A.408.408,0,0,1-1648.541,953.81Z" transform="translate(1662.036 -948.631)"/><path class="c" d="M-1648.541,1164.846h-8.725a.408.408,0,0,1-.408-.408.408.408,0,0,1,.408-.408h8.725a.408.408,0,0,1,.408.408A.408.408,0,0,1-1648.541,1164.846Z" transform="translate(1662.036 -1155.238)"/><path class="c" d="M-1648.541,1273.375h-8.725a.408.408,0,0,1-.408-.408.408.408,0,0,1,.408-.408h8.725a.408.408,0,0,1,.408.408A.408.408,0,0,1-1648.541,1273.375Z" transform="translate(1662.036 -1259.337)"/><path class="c" d="M-1751.1,1072.168h-8.63a4.823,4.823,0,0,1-4.818-4.818v-8.63a.408.408,0,0,1,.408-.408.408.408,0,0,1,.408.408v8.63a4.006,4.006,0,0,0,4,4h8.63a4.006,4.006,0,0,0,4-4v-8.63a.408.408,0,0,1,.408-.408.408.408,0,0,1,.408.408v8.63A4.823,4.823,0,0,1-1751.1,1072.168Z" transform="translate(1764.545 -1053.835)"/></g></g></svg>