<svg xmlns="http://www.w3.org/2000/svg" xmlns:xlink="http://www.w3.org/1999/xlink" width="24" height="24" viewBox="0 0 24 24">
  <defs>
    <clipPath id="clip-path">
      <rect id="長方形_3897" data-name="長方形 3897" width="24" height="24" fill="#fff" stroke="#707070" stroke-width="1"/>
    </clipPath>
  </defs>
  <g id="マスクグループ_21904" data-name="マスクグループ 21904" clip-path="url(#clip-path)">
    <g id="グループ_22166" data-name="グループ 22166" transform="translate(4.023 3.645)">
      <path id="パス_5614" data-name="パス 5614" d="M-4308.422,1617.451a6.239,6.239,0,0,1-6.232-6.232,6.239,6.239,0,0,1,6.232-6.232,6.239,6.239,0,0,1,6.232,6.232A6.239,6.239,0,0,1-4308.422,1617.451Zm0-11.578a5.352,5.352,0,0,0-5.346,5.346,5.352,5.352,0,0,0,5.346,5.346,5.352,5.352,0,0,0,5.346-5.346A5.352,5.352,0,0,0-4308.422,1605.873Z" transform="translate(4314.654 -1604.987)" fill="#fff"/>
      <path id="パス_5615" data-name="パス 5615" d="M-4082.651,1841.811a.443.443,0,0,1-.313-.13l-4.093-4.094a.442.442,0,0,1,0-.626.443.443,0,0,1,.626,0l4.093,4.094a.443.443,0,0,1,0,.626A.443.443,0,0,1-4082.651,1841.811Z" transform="translate(4098.381 -1825.423)" fill="#fff"/>
    </g>
  </g>
</svg>
