<svg xmlns="http://www.w3.org/2000/svg" xmlns:xlink="http://www.w3.org/1999/xlink" width="62" height="28" viewBox="0 0 62 28">
  <defs>
    <clipPath id="clip-path">
      <rect id="長方形_3907" data-name="長方形 3907" width="62" height="28" fill="#fff" stroke="#707070" stroke-width="1"/>
    </clipPath>
  </defs>
  <g id="マスクグループ_21905" data-name="マスクグループ 21905" clip-path="url(#clip-path)">
    <g id="グループ_22023" data-name="グループ 22023" transform="translate(2.801 1.09)">
      <path id="パス_6105" data-name="パス 6105" d="M615.622,2702.677a2.178,2.178,0,0,1-2.994.153c.362-.276.686-.536,1.023-.777a2.038,2.038,0,0,0,.8-1.581,14.336,14.336,0,0,0-.655-5.626,1.423,1.423,0,0,0-.758-.778,7.229,7.229,0,0,1-4.671-5.608,2.942,2.942,0,0,0-2.19-2.619c-.215-.055-.513-.394-.5-.581a1.176,1.176,0,0,1,.472-.749,1.3,1.3,0,0,1,.82-.178c1.234.115,2.463.272,3.819.429-.6,1.339-.129,2.477.3,3.605.507,1.321,1.432,1.812,2.721,1.245a9.724,9.724,0,0,0,2.463-1.683,3.693,3.693,0,0,1,5.149-.011,6.369,6.369,0,0,0,1.5,1.027c2.512,1.2,3.245,3.489,3.69,5.942.049.272-.309.619-.574,1.107.81,1.656.448,3.663.593,5.615.128,1.707-.789,2.228-2.533,1.4a2.22,2.22,0,0,1,.419-.558,2.284,2.284,0,0,0,.906-2.375,10.251,10.251,0,0,0-1.5-4.266c-.057.082-.126.136-.118.175.392,1.87-.332,3.607-.659,5.387a6.233,6.233,0,0,1-.65,1.576.709.709,0,0,1-.478.347c-.515.045-1.038.016-1.557.016l-.117-.258c.147-.206.251-.481.449-.605a3.7,3.7,0,0,0,1.562-3.149,11.4,11.4,0,0,0-1.254-5.531c-1.089.385-2.124.759-3.165,1.117-.521.179-.449.61-.41.986.153,1.461.4,2.915.489,4.379a28.556,28.556,0,0,1-.126,3.062c-.734,0-1.3.014-1.863,0-.417-.014-.571-.247-.442-.652a2,2,0,0,0,1.19-2.192c-.152-1.395-.492-2.768-.752-4.15-.324,2.08.065,4.152-.5,6.175C615.518,2702.539,615.59,2702.614,615.622,2702.677Z" transform="translate(-588.65 -2678.464)" fill="#fff"/>
      <path id="パス_6106" data-name="パス 6106" d="M641.722,2659.629c.543-.647,1.041-1.25,1.551-1.844.162-.189.346-.5.529-.507,1.244-.042,2.49-.034,3.734.013.119,0,.32.386.32.593.01,2.762-.006,5.524-.028,8.286a2.521,2.521,0,0,1-.21.618,21.177,21.177,0,0,1-2.369-.644c-.226-.087-.4-.568-.422-.88-.062-1-.037-2.008-.051-3.012,0-.242-.028-.484-.052-.884l-3.066,3.11-2.754-3.11-.277.153c0,1.2-.04,2.4.014,3.6a1.02,1.02,0,0,1-.987,1.238c-.62.1-1.224.3-1.961.481-.058-.517-.129-.86-.13-1.2q-.021-3.6-.015-7.21c0-1.147.093-1.226,1.207-1.274,2.763-.12,2.763-.12,4.513,1.979C641.4,2659.285,641.544,2659.433,641.722,2659.629Z" transform="translate(-612.082 -2657.106)" fill="#fff"/>
      <path id="パス_6107" data-name="パス 6107" d="M707.548,2662.753,706,2664.968c-1.652-1.235-3.3-2.285-5.416-1.219l3.91.972-.662,2.567-3.938-.917a2.324,2.324,0,0,0,2.193,1.646,5.571,5.571,0,0,0,2.833-.42c.68-.33.887-.172,1,.556.249,1.668.046,1.977-1.6,2.331a8.848,8.848,0,0,1-5.273-.292,5.139,5.139,0,0,1-2.647-6.98,5.617,5.617,0,0,1,5.159-2.85,13.684,13.684,0,0,1,5.436,1.9A3.766,3.766,0,0,1,707.548,2662.753Z" transform="translate(-659.401 -2659.646)" fill="#fff"/>
      <path id="パス_6108" data-name="パス 6108" d="M535.812,2673.877a6.024,6.024,0,0,0-3.985.257,2.446,2.446,0,0,0-1.491,2.082,2.49,2.49,0,0,0,1.261,2.238,2.763,2.763,0,0,0,3.113-.38c.753-.642,1.413-1.393,2.245-2.227.318.869.636,1.683.9,2.515a.717.717,0,0,1-.193.57,8.019,8.019,0,0,1-5.658,2.95,5.159,5.159,0,0,1-5.375-4.813,5.066,5.066,0,0,1,2.332-4.593,9.919,9.919,0,0,1,6.489-1.441c.212.01.572.288.588.466A3.8,3.8,0,0,1,535.812,2673.877Z" transform="translate(-526.616 -2668.013)" fill="#fff"/>
      <path id="パス_6109" data-name="パス 6109" d="M579.232,2669.135a27.319,27.319,0,0,1,3.213-7.5c-1.524.341-1.837-.667-2.32-1.725a28.149,28.149,0,0,1,9.335-1.844,7.374,7.374,0,0,1,.183,1.052q.048,1.718.036,3.437c-.006.784-.14.91-.953.958-.5.029-1,.029-1.5.015-.877-.024-.981-.125-1.068-.981-.028-.283-.032-.568-.056-1.017a14.119,14.119,0,0,0-1.931,3.429c-.356.935-.643,1.9-1.015,2.823a1.384,1.384,0,0,1-.637.776c-1,.335-2.037.563-3.06.832Z" transform="translate(-567.899 -2657.862)" fill="#fff"/>
      <path id="パス_6110" data-name="パス 6110" d="M752.921,2671.644l-2.237,6.178,4.523,1.647c-.554.765-.952,1.385-1.435,1.931a.9.9,0,0,1-.777.076c-1.931-.669-3.846-1.386-5.775-2.06-.651-.227-.813-.581-.576-1.228.6-1.65,1.17-3.313,1.745-4.972.246-.71.48-1.425.716-2.139.149-.451.416-.648.9-.473C750.908,2670.933,751.816,2671.25,752.921,2671.644Z" transform="translate(-699.171 -2667.647)" fill="#fff"/>
    </g>
  </g>
</svg>
