<?xml version="1.0" encoding="utf-8"?>
<!-- Generator: Adobe Illustrator 25.0.1, SVG Export Plug-In . SVG Version: 6.00 Build 0)  -->
<svg version="1.1" id="レイヤー_1" xmlns="http://www.w3.org/2000/svg" xmlns:xlink="http://www.w3.org/1999/xlink" x="0px"
	 y="0px" viewBox="0 0 24 24" style="enable-background:new 0 0 24 24;" xml:space="preserve">
<style type="text/css">
	.st0{clip-path:url(#SVGID_2_);}
	.st1{fill:#FFFFFF;}
</style>
<g>
	<defs>
		<rect id="SVGID_1_" width="24" height="24"/>
	</defs>
	<clipPath id="SVGID_2_">
		<use xlink:href="#SVGID_1_"  style="overflow:visible;"/>
	</clipPath>
	<g id="マスクグループ_21904" class="st0">
		<path id="パス_5613" class="st1" d="M19.2,8.9c0,0.1,0,0.2-0.1,0.3l-6.5,6.5c-0.1,0.1-0.2,0.1-0.3,0.1c-0.1,0-0.2,0-0.3-0.1
			L5.2,9.1c-0.2-0.2-0.2-0.5,0-0.6c0,0,0,0,0,0c0.2-0.2,0.5-0.2,0.6,0l6.3,6.3l6.2-6.2c0.2-0.2,0.5-0.2,0.6,0c0,0,0,0,0,0
			C19.1,8.7,19.2,8.8,19.2,8.9z"/>
	</g>
</g>
</svg>
