<svg xmlns="http://www.w3.org/2000/svg" xmlns:xlink="http://www.w3.org/1999/xlink" width="12" height="12" viewBox="0 0 12 12"><defs><style>.a,.c{fill:#fff;}.a{stroke:#707070;}.b{clip-path:url(#a);}</style><clipPath id="a"><rect class="a" width="12" height="12"/></clipPath></defs><g transform="translate(12 12) rotate(180)"><g class="b"><path class="c" d="M-3469.172,926.477a.222.222,0,0,1-.158-.065l-3.265-3.265a.223.223,0,0,1-.065-.158.223.223,0,0,1,.065-.158l3.322-3.322a.223.223,0,0,1,.316,0,.223.223,0,0,1,0,.316l-3.164,3.164,3.107,3.108a.223.223,0,0,1,0,.316A.222.222,0,0,1-3469.172,926.477Z" transform="translate(3476.719 -916.889)"/></g></g></svg>