<svg id="グループ_23990" data-name="グループ 23990" xmlns="http://www.w3.org/2000/svg" width="21.555" height="15.694" viewBox="0 0 21.555 15.694">
  <path id="パス_6118" data-name="パス 6118" d="M-1235.143,2975.854h-17.209a2.176,2.176,0,0,1-2.173-2.173v-11.348a2.176,2.176,0,0,1,2.173-2.173h17.209a2.176,2.176,0,0,1,2.173,2.173v11.348A2.176,2.176,0,0,1-1235.143,2975.854Zm-17.209-14.508a.988.988,0,0,0-.987.987v11.348a.989.989,0,0,0,.987.988h17.209a.989.989,0,0,0,.987-.988v-11.348a.988.988,0,0,0-.987-.987Z" transform="translate(1254.525 -2960.159)" fill="#fff"/>
  <path id="パス_6119" data-name="パス 6119" d="M-1228.811,2976.208a.591.591,0,0,1-.35-.115l-9.29-6.8a.593.593,0,0,1-.128-.829.593.593,0,0,1,.829-.128l8.94,6.542,8.94-6.542a.593.593,0,0,1,.829.128.593.593,0,0,1-.128.829l-9.291,6.8A.589.589,0,0,1-1228.811,2976.208Z" transform="translate(1239.589 -2967.768)" fill="#fff"/>
</svg>
