<svg id="グループ_23982" data-name="グループ 23982" xmlns="http://www.w3.org/2000/svg" width="335.668" height="150.387" viewBox="0 0 335.668 150.387">
  <path id="パス_6209" data-name="パス 6209" d="M429.58,272.85a13.083,13.083,0,1,1,13.106-13.082A13.094,13.094,0,0,1,429.58,272.85m0-35.482a22.4,22.4,0,1,0,22.442,22.4,22.421,22.421,0,0,0-22.442-22.4" transform="translate(-292.159 -188.092)" fill="#fff"/>
  <path id="パス_6210" data-name="パス 6210" d="M581.961,237.368a22.417,22.417,0,0,0-17.774,8.726,22.45,22.45,0,0,0-40.216,13.675V280.1h9.336V259.768a13.106,13.106,0,0,1,26.212,0V280.1h9.336V259.766a13.106,13.106,0,0,1,26.212,0V280.1H604.4V259.768a22.421,22.421,0,0,0-22.442-22.4" transform="translate(-359.42 -188.092)" fill="#fff"/>
  <path id="パス_6211" data-name="パス 6211" d="M224,205.774a13.083,13.083,0,1,1,13.108-13.084A13.1,13.1,0,0,1,224,205.774M158.6,179.608a13.083,13.083,0,1,1-13.106,13.082A13.094,13.094,0,0,1,158.6,179.608m84.526,1.349.006-33.4a26.591,26.591,0,0,0-53.139-1.444,9.334,9.334,0,0,0-3.356-.623v67.538h3.318v31.838a23.889,23.889,0,0,1-47.778,0v-1.347a9.306,9.306,0,0,0,3.318.608v-33.25a22.4,22.4,0,1,0-1.069-35.547h-8.267v59.481a9.293,9.293,0,0,0,3.318,7.121v2.934a26.589,26.589,0,0,0,53.177,0V213.024h3.316V154.8a9.291,9.291,0,0,0-3.316-7.121v-.13a23.889,23.889,0,0,1,47.778,0l-.008,29.866v0a22.314,22.314,0,1,0,2.7,3.535Z" transform="translate(-136.153 -121.015)" fill="#fff"/>
  <path id="パス_6212" data-name="パス 6212" d="M810.885,220.31h0l5.844-7.74-5.844-7.742-16.848-22.315a9.343,9.343,0,0,0-7.459-3.712h-7.031l25.495,33.769-25.493,33.767h7.029a9.349,9.349,0,0,0,7.461-3.712Z" transform="translate(-506.555 -154.328)" fill="#fff"/>
  <path id="パス_6213" data-name="パス 6213" d="M872.548,182.512l-15.157,20.075,5.844,7.74,23.8-31.528h-7.03a9.342,9.342,0,0,0-7.461,3.712" transform="translate(-551.371 -154.328)" fill="#fff"/>
  <path id="パス_6214" data-name="パス 6214" d="M857.387,271.56l15.157,20.077A9.349,9.349,0,0,0,880,295.35h7.032l-23.805-31.53Z" transform="translate(-551.368 -203.341)" fill="#fff"/>
</svg>
