<svg xmlns="http://www.w3.org/2000/svg" width="277.141" height="124.166" viewBox="0 0 277.141 124.166"><defs><clipPath id="a"><path fill="none" d="M0 0H277.141V124.166H0z"/></clipPath></defs><g data-name="リピートグリッド 3"><g data-name="グループ 24210" fill="#373a36" clip-path="url(#a)"><path data-name="パス 6184" d="M425.667,266.663a10.8,10.8,0,1,1,10.821-10.8,10.811,10.811,0,0,1-10.821,10.8m0-29.3A18.494,18.494,0,1,0,444.2,255.863a18.512,18.512,0,0,0-18.529-18.495" transform="translate(-312.207 -196.683)"/><path data-name="パス 6185" d="M571.85,237.368a18.508,18.508,0,0,0-14.675,7.2,18.536,18.536,0,0,0-33.2,11.29V272.65h7.708V255.863a10.821,10.821,0,0,1,21.642,0V272.65h7.708V255.861a10.821,10.821,0,0,1,21.642,0V272.65h7.708V255.863a18.512,18.512,0,0,0-18.529-18.495" transform="translate(-388.111 -196.683)"/><path data-name="パス 6186" d="M208.684,191a10.8,10.8,0,1,1,10.823-10.8A10.812,10.812,0,0,1,208.684,191m-54-21.6a10.8,10.8,0,1,1-10.821,10.8,10.811,10.811,0,0,1,10.821-10.8m69.788,1.114,0-27.579a21.954,21.954,0,0,0-43.874-1.192,7.706,7.706,0,0,0-2.771-.515v55.762h2.74v26.287a19.724,19.724,0,0,1-39.448,0v-1.112a7.683,7.683,0,0,0,2.739.5V195.206a18.493,18.493,0,1,0-.883-29.349h-6.825v49.11a7.672,7.672,0,0,0,2.74,5.88v2.423a21.953,21.953,0,0,0,43.905,0V196.982h2.738V148.913a7.671,7.671,0,0,0-2.738-5.88v-.107a19.724,19.724,0,0,1,39.448,0l-.006,24.659v0a18.423,18.423,0,1,0,2.23,2.919Z" transform="translate(-136.153 -121.015)"/><path data-name="パス 6187" d="M805.421,213.073h0l4.825-6.391-4.825-6.392-13.91-18.424a7.714,7.714,0,0,0-6.159-3.065h-5.805l21.05,27.881-21.048,27.879h5.8a7.719,7.719,0,0,0,6.16-3.065Z" transform="translate(-554.154 -158.595)"/><path data-name="パス 6188" d="M869.905,181.865,857.391,198.44l4.825,6.391L881.869,178.8h-5.8a7.714,7.714,0,0,0-6.16,3.065" transform="translate(-604.728 -158.595)"/><path data-name="パス 6189" d="M857.387,270.211,869.9,286.787a7.719,7.719,0,0,0,6.16,3.065h5.806L862.212,263.82Z" transform="translate(-604.725 -213.886)"/></g></g></svg>