<svg xmlns="http://www.w3.org/2000/svg" width="209.001" height="125.826" viewBox="0 0 209.001 125.826"><g data-name="グループ 23981" fill="#fff"><path data-name="パス 5555" d="M790.832,767.221A10.936,10.936,0,1,1,801.77,778,10.864,10.864,0,0,1,790.832,767.221Zm55.181-.128a10.831,10.831,0,1,1,10.83,10.675A10.763,10.763,0,0,1,846.013,767.093Zm4.294-59.944c-12.258,0-21.3,8.693-22.157,20.935a8.755,8.755,0,0,0-2.85-.476V784.1h2.8l.011,24.96c0,12.165-8.761,21.7-19.934,21.7-11.065,0-19.893-9.247-20.262-21.109a8.579,8.579,0,0,0,2.921.471V782.284a18.89,18.89,0,0,0,10.937,3.466,18.529,18.529,0,1,0,0-37.053,18.909,18.909,0,0,0-11.487,3.871H782.96l.006,50.395a8.854,8.854,0,0,0,2.688,5.376v.943c.2,13.281,10.1,23.694,22.52,23.694,12.437,0,22.178-10.5,22.178-23.915l-.01-24.96h2.809V734.766a9.008,9.008,0,0,0-2.809-5.427c.3-11.617,8.6-19.978,19.965-19.978,11.774,0,19.692,8.2,19.692,20.408V753.7a18.579,18.579,0,1,0,5.773,13.389,18.4,18.4,0,0,0-3.523-10.813V729.769C872.248,716.453,863.22,707.149,850.306,707.149Zm104.863,48.485a18.916,18.916,0,0,0-14.9-7.214h-.014a18.7,18.7,0,0,0-18.811,18.534l.022,17.146h7.872V766.955a10.943,10.943,0,0,1,21.884,0V784.1H959.1V766.955a10.94,10.94,0,0,1,21.877,0l-.017,17.146h7.9V766.955a18.858,18.858,0,0,0-33.689-11.32Zm-67.362,11.459a10.837,10.837,0,1,1,10.841,10.675A10.773,10.773,0,0,1,887.807,767.093Zm-8.088,0a18.926,18.926,0,1,0,18.929-18.647A18.809,18.809,0,0,0,879.719,767.093Z" transform="translate(-782.96 -707.15)" fill-rule="evenodd"/><text data-name="TECH +" transform="translate(100.001 110.124)" font-size="31" font-family="SegoeUI-Bold, Segoe UI" font-weight="700"><tspan x="0" y="0">TECH +</tspan></text></g></svg>