<svg xmlns="http://www.w3.org/2000/svg" width="71" height="32" viewBox="0 0 71 32"><defs><clipPath id="a"><path data-name="Rectangle 3970" fill="#fff" stroke="#707070" d="M0 0H71V32H0z"/></clipPath></defs><g data-name="Mask Group 21916"><g data-name="Group 22767" fill="#fff" clip-path="url(#a)"><path data-name="Path 6110" d="M411.886,244.93a2.788,2.788,0,1,1,2.773-2.788,2.781,2.781,0,0,1-2.773,2.788m0-7.562a4.774,4.774,0,1,0,4.748,4.774,4.761,4.761,0,0,0-4.748-4.774" transform="translate(-382.811 -226.893)"/><path data-name="Path 6111" d="M536.241,237.368a4.731,4.731,0,0,0-3.761,1.86,4.743,4.743,0,0,0-8.509,2.914v4.333h1.975v-4.333a2.773,2.773,0,1,1,5.546,0v4.333h1.975v-4.333h0a2.773,2.773,0,1,1,5.546,0v4.333h1.975v-4.333a4.761,4.761,0,0,0-4.748-4.774" transform="translate(-489.155 -226.893)"/><path data-name="Path 6112" d="M154.74,139.079a2.788,2.788,0,1,1,2.773-2.788,2.781,2.781,0,0,1-2.773,2.788M140.9,133.5a2.788,2.788,0,1,1-2.773,2.788A2.781,2.781,0,0,1,140.9,133.5m17.884.288v-7.119a5.625,5.625,0,0,0-11.243-.308,1.962,1.962,0,0,0-.71-.133v14.394h.7v6.786a5.055,5.055,0,1,1-10.109,0v-.287a1.956,1.956,0,0,0,.7.13v-7.087a4.706,4.706,0,0,0,2.773.9,4.774,4.774,0,0,0,0-9.548,4.714,4.714,0,0,0-3,1.073h-1.749v12.677a1.986,1.986,0,0,0,.7,1.518v.625a5.626,5.626,0,1,0,11.251,0v-6.786h.7V128.217a1.986,1.986,0,0,0-.7-1.518v-.028a5.055,5.055,0,1,1,10.109,0l0,6.365h0a4.779,4.779,0,1,0,1.274,3.254A4.772,4.772,0,0,0,158.786,133.79Z" transform="translate(-136.153 -121.042)"/><path data-name="Path 6113" d="M786.177,187.648h0l1.236-1.65-1.236-1.65-3.565-4.756a1.972,1.972,0,0,0-1.578-.791h-1.488l5.394,7.2-5.394,7.2h1.487a1.973,1.973,0,0,0,1.579-.791Z" transform="translate(-721.786 -173.612)"/><path data-name="Path 6114" d="M860.6,179.591l-3.207,4.279,1.236,1.65,5.036-6.719h-1.487a1.972,1.972,0,0,0-1.579.791" transform="translate(-792.643 -173.611)"/><path data-name="Path 6115" d="M857.387,265.47l3.207,4.279a1.973,1.973,0,0,0,1.579.791h1.488l-5.037-6.72Z" transform="translate(-792.639 -250.957)"/></g></g></svg>