<svg xmlns="http://www.w3.org/2000/svg" width="98" height="44" viewBox="0 0 98 44"><defs><clipPath id="a"><path data-name="Rectangle 3970" fill="#fff" stroke="#707070" d="M0 0H98V44H0z"/></clipPath></defs><g data-name="Mask Group 21916"><g data-name="Group 22767" fill="#fff" clip-path="url(#a)"><path data-name="Path 6110" d="M413.692,247.766a3.834,3.834,0,1,1,3.828-3.834,3.831,3.831,0,0,1-3.828,3.834m0-10.4a6.564,6.564,0,1,0,6.554,6.564,6.559,6.559,0,0,0-6.554-6.564" transform="translate(-373.559 -222.965)"/><path data-name="Path 6111" d="M540.907,237.368a6.539,6.539,0,0,0-5.191,2.557,6.552,6.552,0,0,0-11.745,4.007v5.958H526.7v-5.958a3.828,3.828,0,1,1,7.655,0v5.958h2.726v-5.958h0a3.828,3.828,0,1,1,7.655,0v5.958h2.726v-5.958a6.559,6.559,0,0,0-6.554-6.564" transform="translate(-475.915 -222.965)"/><path data-name="Path 6112" d="M161.808,145.853a3.834,3.834,0,1,1,3.828-3.834,3.831,3.831,0,0,1-3.828,3.834m-19.1-7.668a3.834,3.834,0,1,1-3.828,3.834,3.83,3.83,0,0,1,3.828-3.834m24.685.4,0-9.789a7.765,7.765,0,0,0-15.519-.423,2.717,2.717,0,0,0-.98-.183v19.792h.969v9.33a6.977,6.977,0,1,1-13.953,0v-.395a2.709,2.709,0,0,0,.969.178v-9.744a6.564,6.564,0,1,0-.312-10.417h-2.414v17.431a2.727,2.727,0,0,0,.969,2.087v.86a7.765,7.765,0,1,0,15.53,0v-9.33h.968V130.917a2.726,2.726,0,0,0-.968-2.087v-.038a6.977,6.977,0,1,1,13.953,0l0,8.752h0a6.548,6.548,0,1,0,.789,1.036Z" transform="translate(-136.153 -121.052)"/><path data-name="Path 6113" d="M788.7,190.965h0L790.4,188.7l-1.707-2.269-4.92-6.539A2.726,2.726,0,0,0,781.6,178.8h-2.053l7.445,9.9-7.445,9.9H781.6a2.727,2.727,0,0,0,2.179-1.088Z" transform="translate(-699.821 -171.666)"/><path data-name="Path 6114" d="M861.817,179.888l-4.426,5.883,1.707,2.268,6.952-9.239H864a2.725,2.725,0,0,0-2.179,1.088" transform="translate(-768.02 -171.665)"/><path data-name="Path 6115" d="M857.387,266.088l4.427,5.884a2.726,2.726,0,0,0,2.179,1.088h2.053l-6.952-9.24Z" transform="translate(-768.016 -246.134)"/></g></g></svg>