<svg xmlns="http://www.w3.org/2000/svg" xmlns:xlink="http://www.w3.org/1999/xlink" width="12" height="12" viewBox="0 0 12 12">
  <defs>
    <clipPath id="clip-path">
      <rect id="Rectangle_3897" data-name="Rectangle 3897" width="12" height="12" fill="#fff" stroke="#707070" stroke-width="1"/>
    </clipPath>
  </defs>
  <g id="icon_-_矢印" data-name="icon - 矢印" transform="translate(12) rotate(90)">
    <g id="Mask_Group_21904" data-name="Mask Group 21904" clip-path="url(#clip-path)">
      <path id="Path_5613" data-name="Path 5613" d="M-3469.172,926.477a.222.222,0,0,1-.158-.065l-3.265-3.265a.223.223,0,0,1-.065-.158.223.223,0,0,1,.065-.158l3.322-3.322a.223.223,0,0,1,.316,0,.223.223,0,0,1,0,.316l-3.164,3.164,3.107,3.108a.223.223,0,0,1,0,.316A.222.222,0,0,1-3469.172,926.477Z" transform="translate(3476.719 -916.889)" fill="#fff"/>
    </g>
  </g>
</svg>
