<svg id="グループ_23699" data-name="グループ 23699" xmlns="http://www.w3.org/2000/svg" width="24.605" height="23.228" viewBox="0 0 24.605 23.228">
  <path id="パス_6281" data-name="パス 6281" d="M1017.709,4407.962h-1.988V4400.5a2.446,2.446,0,0,0-2.443-2.443h-1.656v-.547a.6.6,0,0,0-.167-.415,7.436,7.436,0,0,0,1.527-2.056,13.565,13.565,0,0,0,.942-2.235s0-.01,0-.015a.047.047,0,0,1,0-.007,6.392,6.392,0,0,0,.2-1.324,5.521,5.521,0,0,0-5.516-5.516,5.66,5.66,0,0,0-4.094,1.758,5.076,5.076,0,0,0-1.422,3.79,4.455,4.455,0,0,0,.217,1.344,13.648,13.648,0,0,0,.916,2.192,7.352,7.352,0,0,0,1.537,2.079.6.6,0,0,0-.159.407v.546h-1.655a2.446,2.446,0,0,0-2.444,2.444v5.458a3.96,3.96,0,0,0-2.824-1.943v-.517a.6.6,0,1,0-1.207,0v.517a3.958,3.958,0,0,0-3.348,3.905v.066a.6.6,0,0,0,.167,1.182h23.407a.6.6,0,0,0,0-1.206Zm-16.878,0h-5.49v-.042a2.745,2.745,0,0,1,5.49,0Zm3.476-16.538a3.88,3.88,0,0,1,1.092-2.895,4.449,4.449,0,0,1,3.218-1.381,4.314,4.314,0,0,1,4.309,4.309c0,.041,0,.085-.005.132l-2.237-1.585a.605.605,0,0,0-.538-.081l-5.805,1.919C1004.328,4391.726,1004.316,4391.587,1004.307,4391.424Zm.346,1.586,5.582-1.845,2.4,1.7c-.445,1.238-1.518,3.505-2.893,3.856a.6.6,0,0,0-.443.7l-.678.214-.725-.229a.6.6,0,0,0-.439-.7C1006.145,4396.365,1005.118,4394.266,1004.653,4393.01Zm5.762,5.323v1.522l-1.616-.509a.612.612,0,0,0-.362,0l-1.616.509v-1.523l.7.222.914.288a.6.6,0,0,0,.363,0Zm4.1,9.63h-5.294v-5a.6.6,0,1,0-1.207,0v5h-5.294V4400.5a1.238,1.238,0,0,1,1.237-1.237h1.656v1.414a.6.6,0,0,0,.3.521l.014.008c.017.009.035.018.053.026l0,0c.019.007.039.015.059.021l.015,0a.541.541,0,0,0,.055.013h.006a.527.527,0,0,0,.062.007h.078l.062-.008.014,0a.459.459,0,0,0,.062-.016l2.219-.7,2.22.7a.6.6,0,0,0,.538-.088.557.557,0,0,0,.055-.045.6.6,0,0,0,.191-.441v-1.413h1.657a1.238,1.238,0,0,1,1.237,1.237Z" transform="translate(-993.697 -4385.941)" fill="#fff"/>
</svg>
