<svg xmlns="http://www.w3.org/2000/svg" width="246.092" height="110.472" viewBox="0 0 246.092 110.472">
  <g id="グループ_23981" data-name="グループ 23981" transform="translate(21387.492 7646.08)">
    <path id="パス_6453" data-name="パス 6453" d="M497.979,382.248a9.61,9.61,0,1,1,9.609-9.609,9.609,9.609,0,0,1-9.609,9.609m0-26.064a16.455,16.455,0,1,0,16.453,16.455,16.454,16.454,0,0,0-16.453-16.455" transform="translate(-21784.723 -7966.065)" fill="#fff"/>
    <path id="パス_6454" data-name="パス 6454" d="M629.192,356.184a16.424,16.424,0,0,0-13.031,6.41,16.452,16.452,0,0,0-29.484,10.045v14.936h6.844V372.639a9.609,9.609,0,1,1,19.217,0v14.936h6.844V372.639h0a9.609,9.609,0,1,1,19.218,0v14.936h6.844V372.639a16.454,16.454,0,0,0-16.453-16.455" transform="translate(-21853.531 -7966.065)" fill="#fff"/>
    <path id="パス_6455" data-name="パス 6455" d="M302.045,313.729a9.61,9.61,0,1,1,9.61-9.611,9.61,9.61,0,0,1-9.61,9.611m-47.951-19.221a9.61,9.61,0,1,1-9.609,9.61,9.609,9.609,0,0,1,9.609-9.61m61.969.991,0-24.537a19.494,19.494,0,0,0-38.958-1.061,6.833,6.833,0,0,0-2.461-.458v49.612h2.433v23.388a17.514,17.514,0,1,1-35.028,0v-.99a6.813,6.813,0,0,0,2.433.447V317.475a16.454,16.454,0,1,0-.784-26.112h-6.061v43.694a6.831,6.831,0,0,0,2.433,5.231v2.156a19.493,19.493,0,1,0,38.986,0V319.055h2.432V276.288a6.83,6.83,0,0,0-2.432-5.231v-.1a17.514,17.514,0,1,1,35.028,0l-.006,21.939h0a16.4,16.4,0,1,0,1.98,2.6" transform="translate(-21625.133 -7897.547)" fill="#fff"/>
    <path id="パス_6456" data-name="パス 6456" d="M839.67,333.966h0l4.284-5.686-4.284-5.688L827.318,306.2a6.846,6.846,0,0,0-5.469-2.727h-5.155l18.691,24.806-18.69,24.8h5.153a6.85,6.85,0,0,0,5.47-2.727Z" transform="translate(-22004.045 -7931.576)" fill="#fff"/>
    <path id="パス_6457" data-name="パス 6457" d="M897.866,306.2l-11.112,14.747,4.284,5.686,17.451-23.16h-5.154a6.845,6.845,0,0,0-5.47,2.727" transform="translate(-22049.891 -7931.575)" fill="#fff"/>
    <path id="パス_6458" data-name="パス 6458" d="M886.751,385.678l11.112,14.748a6.851,6.851,0,0,0,5.47,2.727h5.155l-17.452-23.161Z" transform="translate(-22049.889 -7981.645)" fill="#fff"/>
    <path id="パス_6459" data-name="パス 6459" d="M598.084,525.154a6.74,6.74,0,0,1-6.829,5.154c-5.021,0-7.649-4.207-7.649-8.362,0-5.764,3.965-8.39,7.649-8.39a6.447,6.447,0,0,1,6.692,5.07l.029.122,1.777-.624-.023-.1c-.919-3.877-4.167-6.286-8.475-6.286a9.645,9.645,0,0,0-6.626,2.641,10.182,10.182,0,0,0-3,7.566c0,6.683,4.845,10.18,9.63,10.18a8.431,8.431,0,0,0,8.556-6.366l.026-.1-1.722-.627Z" transform="translate(-21850.225 -8067.851)" fill="#fff"/>
    <path id="パス_6460" data-name="パス 6460" d="M703.043,512.771h-1.982v19.673h11.8v-1.817h-9.818Z" transform="translate(-21928.379 -8068.525)" fill="#fff"/>
    <path id="パス_6461" data-name="パス 6461" d="M810.569,525.775c0,3.407-1.659,5.208-4.8,5.208s-4.8-1.8-4.8-5.208v-13h-1.982v13.087c0,4.347,2.534,6.943,6.778,6.943,4.181,0,6.778-2.661,6.778-6.943V512.771h-1.981Z" transform="translate(-21992.463 -8068.525)" fill="#fff"/>
    <path id="パス_6462" data-name="パス 6462" d="M918.3,522.329a4.531,4.531,0,0,0,2.725-4.261c0-3.217-2.359-5.3-6.01-5.3h-5.708v19.673h6.256c3.587,0,6.092-2.2,6.092-5.352a4.95,4.95,0,0,0-3.355-4.763m-7.039,1.036h4.494c2.343,0,3.918,1.454,3.918,3.617,0,2.247-1.678,3.7-4.275,3.7h-4.138Zm4.193-1.735h-4.193v-7.1h3.589c2.625,0,4.193,1.362,4.193,3.644a3.407,3.407,0,0,1-3.589,3.453" transform="translate(-22064.646 -8068.525)" fill="#fff"/>
  </g>
</svg>
