<svg xmlns="http://www.w3.org/2000/svg" width="28" height="28" viewBox="0 0 28 28"><path d="M-2557.674,5498.376c-1.861-1.986-1.926-6.638-1.96-9.137,0-.229-.006-.441-.01-.633a6.843,6.843,0,0,0-2.048-5.068,6.929,6.929,0,0,0-4.782-1.68,6.928,6.928,0,0,0-4.782,1.68,6.844,6.844,0,0,0-2.048,5.068c0,.192-.007.4-.01.633-.035,2.5-.1,7.151-1.961,9.137a.462.462,0,0,0-.087.5.463.463,0,0,0,.424.279h5.931a2.578,2.578,0,0,0,2.532,2.112,2.578,2.578,0,0,0,2.532-2.112h5.931a.463.463,0,0,0,.424-.279A.462.462,0,0,0-2557.674,5498.376Zm-8.8,1.966a1.652,1.652,0,0,1-1.583-1.187h3.167A1.652,1.652,0,0,1-2566.475,5500.342Zm0-2.112h-7.531a10.54,10.54,0,0,0,1.3-4.009,36.651,36.651,0,0,0,.318-4.969c0-.226.006-.437.01-.627a5.947,5.947,0,0,1,1.748-4.4,6.023,6.023,0,0,1,4.157-1.438,6.023,6.023,0,0,1,4.157,1.438,5.947,5.947,0,0,1,1.748,4.4c0,.19.007.4.01.627a36.655,36.655,0,0,0,.318,4.969,10.536,10.536,0,0,0,1.3,4.009Z" transform="translate(2580.475 -5477.729)" fill="#fff"/></svg>