<svg xmlns="http://www.w3.org/2000/svg" width="12" height="12" viewBox="0 0 12 12"><defs><clipPath id="a"><path data-name="Rectangle 3897" fill="#fff" stroke="#707070" d="M0 0H12V12H0z"/></clipPath></defs><g data-name="icon - 矢印"><g data-name="Mask Group 21904" clip-path="url(#a)" transform="rotate(90 6 6)"><path data-name="Path 5613" d="M-3469.172,926.477a.222.222,0,0,1-.158-.065l-3.265-3.265a.223.223,0,0,1-.065-.158.223.223,0,0,1,.065-.158l3.322-3.322a.223.223,0,0,1,.316,0,.223.223,0,0,1,0,.316l-3.164,3.164,3.107,3.108a.223.223,0,0,1,0,.316A.222.222,0,0,1-3469.172,926.477Z" transform="translate(3476.719 -916.889)" fill="#fff"/></g></g></svg>