<svg xmlns="http://www.w3.org/2000/svg" width="12" height="12" viewBox="0 0 12 12"><defs><clipPath id="a"><path stroke="#707070" fill="#fff" d="M0 0H12V12H0z"/></clipPath></defs><g clip-path="url(#a)" transform="rotate(180 6 6)"><path d="M-3469.172,926.477a.222.222,0,0,1-.158-.065l-3.265-3.265a.223.223,0,0,1-.065-.158.223.223,0,0,1,.065-.158l3.322-3.322a.223.223,0,0,1,.316,0,.223.223,0,0,1,0,.316l-3.164,3.164,3.107,3.108a.223.223,0,0,1,0,.316A.222.222,0,0,1-3469.172,926.477Z" transform="translate(3476.719 -916.889)" fill="#fff"/></g></svg>