<svg xmlns="http://www.w3.org/2000/svg" width="28.603" height="36.612" viewBox="0 0 28.603 36.612"><defs><style>.a{fill:rgba(55,58,54,.8)}</style></defs><circle class="a" cx=".722" cy=".722" r=".722" transform="translate(9.968 26.251)"/><ellipse class="a" cx="1.083" cy=".361" rx="1.083" ry=".361" transform="translate(11.412 31.307)"/><path class="a" d="M35.566,31.261a18.589,18.589,0,0,1-1.107-5.428,3.983,3.983,0,0,0-.933-2.541.547.547,0,0,0-.113-.153c-.007-.006-.016-.008-.023-.014a4.068,4.068,0,0,0-1.565-1.054l-.34-.1a28.566,28.566,0,0,0-.829-3.476,15.1,15.1,0,0,1-.757-3.62V8.009A8.018,8.018,0,0,0,21.891,0a6.776,6.776,0,0,0-4.9,2.3c-2.519.184-4.249,2.479-4.249,5.709v6.865a15.13,15.13,0,0,1-.757,3.62,28.6,28.6,0,0,0-.827,3.466l-.41.124A3.983,3.983,0,0,0,9.2,23.132l-.012.007a.556.556,0,0,0-.062.085,4.006,4.006,0,0,0-.983,2.61,18.638,18.638,0,0,1-1.108,5.428.572.572,0,0,0,.323.733l.785.314V36.04a.572.572,0,1,0,1.144,0V32.766l3.432,1.373v1.9a.572.572,0,1,0,1.144,0V32.608a.572.572,0,1,0-1.144,0v.3L8.292,31.136a18.5,18.5,0,0,0,1-5.3,2.864,2.864,0,0,1,.327-1.317,7.416,7.416,0,0,1,.858,1.44.571.571,0,0,0,.531.359.564.564,0,0,0,.212-.041.572.572,0,0,0,.319-.744,8.452,8.452,0,0,0-1.179-1.93,2.719,2.719,0,0,1,.752-.434l.708-.213.009,0,1.916-.578.427.343c.665.535,1.122.9,1.517,1.178l-2.423.134a.572.572,0,0,0-.491.806l5.149,11.441a.575.575,0,0,0,.33.3.6.6,0,0,0,.192.033.573.573,0,0,0,.256-.06l8.009-4a.569.569,0,0,0,.275-.3l3.728-9.318.75.226a2.826,2.826,0,0,1,.783.45,8.473,8.473,0,0,0-1.175,1.925.572.572,0,0,0,.319.744.58.58,0,0,0,.213.04.572.572,0,0,0,.531-.36,7.346,7.346,0,0,1,.856-1.438,2.841,2.841,0,0,1,.328,1.316,18.5,18.5,0,0,0,1,5.3l-4.428,1.771v-.3a.572.572,0,0,0-1.144,0V36.04a.572.572,0,0,0,1.144,0v-1.9l3.432-1.373V36.04a.572.572,0,1,0,1.144,0V32.308l.784-.313a.572.572,0,0,0,.323-.733ZM13.081,18.808a15.741,15.741,0,0,0,.8-3.934V8.009c0-2.278,1.061-4.576,3.432-4.576a.573.573,0,0,0,.512-.316c.434-.869,2.435-1.972,4.065-1.972a6.872,6.872,0,0,1,6.865,6.865v6.865a15.744,15.744,0,0,0,.8,3.934c.264.926.534,1.875.712,2.795l-1.283-.387-1.646-1.1a.569.569,0,0,0-.634,0c-.2.134-.4.259-.6.379l-.581-.217a.573.573,0,0,1-.36-.419l-.323-1.547a7.171,7.171,0,0,0,2.753-5.157V10.3a3.066,3.066,0,0,0-2.107-2.831,11.024,11.024,0,0,0-2.478-.338c-1.674-.117-3.757-.262-4.736-1.241a.572.572,0,0,0-.977.4c0,1.968-2.039,3.532-2.061,3.547s-.015.02-.026.029a.573.573,0,0,0-.08.09.556.556,0,0,0-.056.083.538.538,0,0,0-.037.106.578.578,0,0,0-.022.108c0,.015-.007.027-.007.042v2.86a7.171,7.171,0,0,0,2.753,5.157l-.324,1.546a.57.57,0,0,1-.36.419L16.5,20.5c-.2-.123-.4-.243-.606-.378a.571.571,0,0,0-.634,0l-1.646,1.1-1.247.376c.178-.916.447-1.862.711-2.784Zm6.443,4.872a3.7,3.7,0,0,0-1.831-2.441,1.7,1.7,0,0,0,.864-1.144l.215-1.024a5.139,5.139,0,0,0,2.53.951,5.134,5.134,0,0,0,2.53-.951l.214,1.025a1.7,1.7,0,0,0,.855,1.139A3.532,3.532,0,0,0,23.064,23.5c-.413.011-.986.042-1.779.086ZM16.153,10.568a6.807,6.807,0,0,0,2.158-3.246,11.7,11.7,0,0,0,4.618.948,10.728,10.728,0,0,1,2.2.281A1.927,1.927,0,0,1,26.45,10.3v2.86c0,3.122-3.738,5.721-5.149,5.721-1.506,0-5.149-2.712-5.149-5.721Zm10.1,11.175.218-.133.018-.011c.174-.1.347-.208.526-.32l.811.541a5.182,5.182,0,0,1-3.557,1.615C24.526,22.805,25.215,22.365,26.256,21.743Zm-11.371.081-.053-.042.754-.5c.209.131.418.257.624.381,1.194.719,1.946,1.221,2.155,2.085l-.25.014c-1.332-.41-1.48-.527-3.229-1.934ZM26,31.621l-7.282,3.641L14.156,25.124c12.473-.693,8.7-.463,9.433-.525a6.613,6.613,0,0,0,5.3-2.217l.718.216Z" transform="translate(-7)"/></svg>