<svg xmlns="http://www.w3.org/2000/svg" width="23" height="23" viewBox="0 0 23 23"><defs><style>.b{fill:#fff}</style></defs><path class="b" d="M-87.756,4591.934a3.714,3.714,0,0,1-3.711-3.71,3.715,3.715,0,0,1,3.711-3.71,3.715,3.715,0,0,1,3.711,3.71A3.714,3.714,0,0,1-87.756,4591.934Zm0-6.7a3,3,0,0,0-2.993,2.993,3,3,0,0,0,2.993,2.994,3,3,0,0,0,2.994-2.994A3,3,0,0,0-87.756,4585.23Z" transform="translate(99.288 -4580.041)"/><path class="b" d="M-175.772,4830.378a.359.359,0,0,1-.35-.281,6.529,6.529,0,0,0-2.252-3.64,6.519,6.519,0,0,0-4.1-1.454,6.519,6.519,0,0,0-4.1,1.454,6.529,6.529,0,0,0-2.252,3.64.358.358,0,0,1-.428.272.358.358,0,0,1-.273-.427,7.249,7.249,0,0,1,2.5-4.042,7.238,7.238,0,0,1,4.551-1.614,7.238,7.238,0,0,1,4.551,1.614,7.25,7.25,0,0,1,2.5,4.042.358.358,0,0,1-.273.427A.354.354,0,0,1-175.772,4830.378Z" transform="translate(194.005 -4811.625)"/></svg>