<svg xmlns="http://www.w3.org/2000/svg" width="23" height="23" viewBox="0 0 23 23"><defs><style>.b{fill:#fff}</style></defs><path class="b" d="M-903.942,4077.792h-5.112a.374.374,0,0,1-.374-.374.374.374,0,0,1,.374-.375h5.112a.88.88,0,0,0,.879-.879V4065.94a.88.88,0,0,0-.879-.879h-5.112a.374.374,0,0,1-.374-.374.374.374,0,0,1,.374-.374h5.112a1.629,1.629,0,0,1,1.627,1.627v10.224A1.629,1.629,0,0,1-903.942,4077.792Z" transform="translate(921.245 -4059.617)"/><path class="b" d="M-1117.782,4157.39l.01-.014.011-.015.01-.017.009-.014.008-.018.007-.016.006-.017.006-.018c0-.005,0-.011,0-.017l0-.019c0-.006,0-.013,0-.02s0-.011,0-.017a.342.342,0,0,0,0-.036h0a.332.332,0,0,0,0-.035c0-.006,0-.011,0-.017s0-.013,0-.02l0-.019c0-.005,0-.011,0-.017s0-.012-.006-.018l-.006-.017-.007-.016-.008-.018-.009-.014-.01-.017-.011-.015-.01-.014a.292.292,0,0,0-.022-.024l0,0-3.182-3.182a.375.375,0,0,0-.529,0,.374.374,0,0,0,0,.529l2.544,2.543h-8.644a.374.374,0,0,0-.374.374.374.374,0,0,0,.374.374h8.644l-2.544,2.544a.374.374,0,0,0,0,.529.373.373,0,0,0,.265.11.373.373,0,0,0,.265-.11l3.182-3.182,0,0A.3.3,0,0,0-1117.782,4157.39Z" transform="translate(1132.02 -4145.718)"/></svg>