<svg xmlns="http://www.w3.org/2000/svg" width="24" height="24" viewBox="0 0 24 24"><defs><clipPath id="a"><path data-name="長方形 3897" fill="#fff" stroke="#707070" d="M0 0H24V24H0z"/></clipPath></defs><g data-name="マスクグループ 21904"><g data-name="グループ 22166" fill="#fff" clip-path="url(#a)"><path data-name="パス 5614" d="M-4308.422,1617.451a6.239,6.239,0,0,1-6.232-6.232,6.239,6.239,0,0,1,6.232-6.232,6.239,6.239,0,0,1,6.232,6.232A6.239,6.239,0,0,1-4308.422,1617.451Zm0-11.578a5.352,5.352,0,0,0-5.346,5.346,5.352,5.352,0,0,0,5.346,5.346,5.352,5.352,0,0,0,5.346-5.346A5.352,5.352,0,0,0-4308.422,1605.873Z" transform="translate(4318.677 -1601.342)"/><path data-name="パス 5615" d="M-4082.651,1841.811a.443.443,0,0,1-.313-.13l-4.093-4.094a.442.442,0,0,1,0-.626.443.443,0,0,1,.626,0l4.093,4.094a.443.443,0,0,1,0,.626A.443.443,0,0,1-4082.651,1841.811Z" transform="translate(4102.404 -1821.778)"/></g></g></svg>