<svg xmlns="http://www.w3.org/2000/svg" width="25" height="25" viewBox="0 0 25 25"><g fill="#fff"><path d="M-903.54,3506.131h-5.487a.4.4,0,0,1-.4-.4.4.4,0,0,1,.4-.4h5.487a.944.944,0,0,0,.943-.943V3493.41a.944.944,0,0,0-.943-.943h-5.487a.4.4,0,0,1-.4-.4.4.4,0,0,1,.4-.4h5.487a1.749,1.749,0,0,1,1.747,1.747v10.974A1.749,1.749,0,0,1-903.54,3506.131Z" transform="translate(921.584 -3486.403)"/><path d="M-1077.343,3584.361h-9.278l2.73-2.73a.4.4,0,0,0,0-.568.4.4,0,0,0-.568,0l-3.416,3.416,0,0-.023.026-.011.015-.012.017-.011.018-.009.016-.009.019-.008.017c0,.006,0,.012-.007.018s0,.012-.007.019,0,.012,0,.018,0,.013,0,.02,0,.014,0,.021,0,.012,0,.018,0,.025,0,.038v0h0q0,.019,0,.038c0,.006,0,.012,0,.018s0,.014,0,.021,0,.013,0,.02,0,.012,0,.018,0,.013.007.019l.007.018.008.017.009.018.009.016.011.018.012.016.011.015a.3.3,0,0,0,.023.026l0,0,3.416,3.416a.4.4,0,0,0,.284.117.4.4,0,0,0,.284-.117.4.4,0,0,0,0-.568l-2.73-2.73h9.278a.4.4,0,0,0,.4-.4A.4.4,0,0,0-1077.343,3584.361Z" transform="translate(1093.316 -3572.269)"/></g></svg>