<svg xmlns="http://www.w3.org/2000/svg" width="101" height="21" viewBox="0 0 101 21"><defs><clipPath id="a"><path data-name="長方形 3905" fill="#fff" stroke="#707070" d="M0 0H101V21H0z"/></clipPath></defs><g data-name="マスクグループ 21903"><g data-name="グループ 22019" fill="#fff" clip-path="url(#a)"><path data-name="パス 6096" d="M231.676,3021.807l.555,11.642h-2.3l-.374-9.035-.335-.053-3.531,9.111h-1.6l-3.28-9.073-.318.028-.6,8.994h-1.487l1.007-11.574h2.808l2.994,8.462.3.038,3.256-8.54Z" transform="translate(-214.905 -3015.001)"/><path data-name="パス 6097" d="M1029.964,3022.605c2.65-.6,5.363-1.109,8.006-1.858a18.964,18.964,0,0,0,7.29-3.891,9.41,9.41,0,0,0,1.9-2.313,1.7,1.7,0,0,0-.59-2.455c-1.514-1.154-3.3-1.066-5.06-1.068a10.333,10.333,0,0,1-1.666-.044c3.168-1.133,6.381-1.681,9.645-.493,2.225.81,2.743,2.494,1.393,4.442a14.306,14.306,0,0,1-6.262,4.633,33.075,33.075,0,0,1-11.556,2.809C1032.005,3022.432,1030.953,3022.528,1029.964,3022.605Z" transform="translate(-954.699 -3004.07)"/><path data-name="パス 6098" d="M1020.472,2964.091c-4.295.522-8.5,1.39-12.273,3.6a25.673,25.673,0,0,0-3.8,2.821c-.832.722-1.622,1.667-1.229,2.9a3.087,3.087,0,0,0,2.991,1.942c1.558.144,3.14.035,4.771.267-1.016.266-2.023.572-3.049.788a12.388,12.388,0,0,1-6.19-.1,7.112,7.112,0,0,1-1.476-.623c-1.341-.766-1.827-2.006-1-3.279a12.867,12.867,0,0,1,2.851-3.179,24.221,24.221,0,0,1,10.585-4.372c2.568-.479,5.183-.7,7.777-1.037Z" transform="translate(-926.301 -2962.14)"/><path data-name="パス 6099" d="M720.081,3021.8h2.2c0,2.682,0,5.327,0,7.972,0,1.8.84,2.669,2.6,2.708a2.485,2.485,0,0,0,2.8-2.687c.023-2.647.006-5.295.006-7.967h1.491c0,2.559,0,5.036,0,7.513,0,2.727-1.222,4.179-3.919,4.425a8.36,8.36,0,0,1-2.969-.313,2.91,2.91,0,0,1-2.184-2.8C720.011,3027.754,720.081,3024.843,720.081,3021.8Z" transform="translate(-672.196 -3014.999)"/><path data-name="パス 6100" d="M513.5,3033.709c-1.817.129-1.825.133-2.425-1.447q-1.837-4.838-3.655-9.685a3.268,3.268,0,0,1-.09-.5h2.5l3.031,8.879.3.013,3.077-8.892h1.775Z" transform="translate(-478.283 -3015.249)"/><path data-name="パス 6101" d="M850.92,3028.667l.544-1.935a4.662,4.662,0,0,0,3.7,1.466c.886-.082,1.67-.313,1.914-1.273a1.886,1.886,0,0,0-1.073-2.337c-.707-.349-1.451-.622-2.171-.944-2.137-.954-2.827-2.058-2.5-3.977a3.552,3.552,0,0,1,3.561-2.758,20.849,20.849,0,0,1,3.689.538l-.624,1.73a17.258,17.258,0,0,0-2.224-1.085,2.013,2.013,0,0,0-2.548,1.22c-.3.871.134,1.671,1.252,2.194.879.411,1.8.736,2.68,1.138a3.132,3.132,0,0,1,1.982,3.271,3.359,3.359,0,0,1-2.289,3.106A7.876,7.876,0,0,1,850.92,3028.667Z" transform="translate(-791.487 -3010.533)"/><path data-name="パス 6102" d="M417.686,3026.946h3.567v1.487h-3.561v4.285l5.17-.465-.252,1.466H415.33v-11.625h5.939l.364,1.283-3.947-.282Z" transform="translate(-394.414 -3015.264)"/><path data-name="パス 6103" d="M653.629,3034.055h-2.353v-11.581h2.353Z" transform="translate(-609.497 -3015.609)"/><path data-name="パス 6104" d="M1085.208,3045.607c2.826-1.568,7.695-1.831,9.173.3C1091.938,3047.523,1086.188,3047.747,1085.208,3045.607Z" transform="translate(-1005.058 -3035.569)"/></g></g></svg>