<svg xmlns="http://www.w3.org/2000/svg" xmlns:xlink="http://www.w3.org/1999/xlink" viewBox="0 0 24 24"><defs><path id="a" d="M0 0H24V24H0z"/></defs><clipPath id="b"><use xlink:href="#a" overflow="visible"/></clipPath><g clip-path="url(#b)"><path d="M19.2,8.9c0,0.1,0,0.2-0.1,0.3l-6.5,6.5c-0.1,0.1-0.2,0.1-0.3,0.1c-0.1,0-0.2,0-0.3-0.1 L5.2,9.1c-0.2-0.2-0.2-0.5,0-0.6c0,0,0,0,0,0c0.2-0.2,0.5-0.2,0.6,0l6.3,6.3l6.2-6.2c0.2-0.2,0.5-0.2,0.6,0c0,0,0,0,0,0 C19.1,8.7,19.2,8.8,19.2,8.9z" fill="#fff"/></g></svg>