<svg xmlns="http://www.w3.org/2000/svg" width="17" height="17" viewBox="0 0 17 17"><defs><clipPath id="a"><path data-name="長方形 3897" fill="#fff" stroke="#707070" d="M0 0H17V17H0z"/></clipPath></defs><g data-name="マスクグループ 21904" clip-path="url(#a)"><path data-name="パス 5613" d="M-3467.718,929.407a.315.315,0,0,1-.224-.093l-4.626-4.626a.316.316,0,0,1-.092-.224.317.317,0,0,1,.092-.224l4.706-4.706a.316.316,0,0,1,.447,0,.316.316,0,0,1,0,.447l-4.482,4.482,4.4,4.4a.316.316,0,0,1,0,.447A.316.316,0,0,1-3467.718,929.407Z" transform="translate(3478.41 -915.825)" fill="#fff"/></g></svg>