<svg data-name="logo - Ploom X" xmlns="http://www.w3.org/2000/svg" width="73" height="44" viewBox="0 0 73 44"><defs><clipPath id="a"><path data-name="長方形 3970" fill="#fff" stroke="#707070" d="M0 0H73V44H0z"/></clipPath></defs><g data-name="マスクグループ 21916"><g data-name="グループ 22767" fill="#fff" clip-path="url(#a)"><path data-name="パス 6110" d="M413.816,247.766a3.834,3.834,0,1,1,3.9-3.834,3.867,3.867,0,0,1-3.9,3.834m0-10.4a6.565,6.565,0,1,0,6.678,6.564,6.622,6.622,0,0,0-6.678-6.564" transform="translate(-372.923 -222.965)"/><path data-name="パス 6111" d="M541.228,237.368a6.707,6.707,0,0,0-5.289,2.557,6.708,6.708,0,0,0-5.289-2.557,6.622,6.622,0,0,0-6.678,6.564v5.958h2.778v-5.958a3.9,3.9,0,0,1,7.8,0v5.958h2.778v-5.958h0a3.9,3.9,0,0,1,7.8,0v5.958h2.778v-5.958a6.622,6.622,0,0,0-6.678-6.564" transform="translate(-475.004 -222.965)"/><path data-name="パス 6112" d="M162.295,145.853a3.834,3.834,0,1,1,3.9-3.834,3.868,3.868,0,0,1-3.9,3.834m-19.464-7.668a3.834,3.834,0,1,1-3.9,3.834,3.867,3.867,0,0,1,3.9-3.834m25.153.4,0-9.789a7.917,7.917,0,0,0-15.813-.423,2.815,2.815,0,0,0-1-.183v19.792h.987v9.33a7.11,7.11,0,0,1-14.218,0v-.395a2.807,2.807,0,0,0,.987.178v-9.744a6.721,6.721,0,0,0,3.9,1.236,6.565,6.565,0,1,0,0-13.128,6.723,6.723,0,0,0-4.218,1.475h-2.46v17.431a2.707,2.707,0,0,0,.987,2.087v.86a7.913,7.913,0,0,0,15.825,0v-9.33h.987V130.917a2.706,2.706,0,0,0-.987-2.087v-.038a7.11,7.11,0,0,1,14.218,0l0,8.752h0a6.713,6.713,0,0,0-4.886-2.09,6.565,6.565,0,1,0,6.678,6.564A6.453,6.453,0,0,0,167.985,138.581Z" transform="translate(-136.153 -121.052)"/></g></g></svg>